<svg xmlns="http://www.w3.org/2000/svg" width="60" height="56" viewBox="0 0 60 56">
    <g fill="none" fill-rule="evenodd">
        <path d="M0 0H60V56H0z"/>
        <path fill="#FFF" d="M6 56c-3.314 0-6-2.686-6-6V14c0-2.973 2.162-5.441 5-5.917V5c0-2.761 2.239-5 5-5h40c2.761 0 5 2.239 5 5v3.083c2.838.477 5 2.944 5 5.917v36c0 3.314-2.686 6-6 6H6z"/>
        <path fill="#CCC" d="M50 0c2.761 0 5 2.239 5 5v3.083l-.037-.006C57.819 8.537 60 11.014 60 14v36c0 3.314-2.686 6-6 6H6c-3.314 0-6-2.686-6-6V14c0-2.986 2.181-5.462 5.037-5.923L5 8.083V5c0-2.761 2.239-5 5-5h40zm4 9.5c-2.485 0-4.5 2.015-4.5 4.5v31.501l-39-.001V14c0-2.485-2.015-4.5-4.5-4.5S1.5 11.515 1.5 14v36c0 2.485 2.015 4.5 4.5 4.5h48c2.485 0 4.5-2.015 4.5-4.5V14c0-2.485-2.015-4.5-4.5-4.5zm-4-8H10C8.067 1.5 6.5 3.067 6.5 5v3.02l-.025-.001C9.567 8.26 12 10.846 12 14v30l36 .001V14c0-3.154 2.433-5.739 5.524-5.981l-.024.002V5c0-1.933-1.567-3.5-3.5-3.5z"/>
    </g>
</svg>
